<svg id="Camada_1" data-name="Camada 1" xmlns="http://www.w3.org/2000/svg" viewBox="0 0 256 256"><defs><style>.cls-1{fill:#e25a32;}.cls-2{fill:#f6c92e;}.cls-3{fill:#55c1cd;}.cls-4{fill:#fff;}</style></defs><title>Logo</title><path class="cls-1" d="M168.41,201.16h0c-.47-.6-.94-1.21-1.39-1.82-.1-.12-.19-.25-.28-.37-.41-.56-.82-1.11-1.22-1.68a3.46,3.46,0,0,1-.22-.31,109,109,0,0,1-17.85-40.84,110.6,110.6,0,0,1-19.81,1.61c-47-.4-86.8-30.21-101.52-71.54-.52,2.59-.95,5.21-1.26,7.86-.07.52-.13,1.05-.18,1.57,0,.14,0,.27-.05.4A102.78,102.78,0,0,0,47,171.53h0l61.07,79.56a4.5,4.5,0,0,0,8.24-2.47c0-.62-5.75-33.84-5.75-33.84h0a4.07,4.07,0,0,1-.17-1.16,4.32,4.32,0,0,1,4.32-4.3,4.15,4.15,0,0,1,1.37.23v-.1a105.35,105.35,0,0,0,30.61-1h0c.75-.13,1.49-.28,2.23-.43l.45-.09c.67-.14,1.34-.28,2-.44l.37-.08A103.85,103.85,0,0,0,169,201.86h0C168.78,201.63,168.59,201.4,168.41,201.16Z"/><path class="cls-2" d="M231.89,104.08c0-.27,0-.54,0-.81,0-.56,0-1.12-.07-1.68,0-.31,0-.62-.05-.93,0-.52-.06-1-.1-1.55,0-.32,0-.64-.07-1,0-.52-.09-1-.14-1.56,0-.3-.05-.6-.08-.9-.07-.58-.13-1.16-.2-1.74l-.09-.69c-.1-.79-.21-1.59-.33-2.38,0-.22-.07-.44-.11-.66-.09-.57-.18-1.15-.28-1.72l-.15-.8a.72.72,0,0,1-.22,0l0,.07c0,.16-44.31,61.74-82.5,68.33A109,109,0,0,0,165.3,197a3.46,3.46,0,0,0,.22.31c.4.57.81,1.12,1.22,1.68.09.12.18.25.28.37.45.61.92,1.22,1.39,1.82h0c.18.24.37.47.56.7h0c.8-.34,1.59-.68,2.38-1l1.36-.64,1.47-.7,1.29-.64c.8-.41,1.6-.82,2.39-1.25l1.18-.66,1.61-.91,1.12-.66c.81-.49,1.62-1,2.42-1.49l.91-.6c.61-.39,1.22-.79,1.82-1.2.31-.21.62-.42.92-.64.83-.57,1.65-1.16,2.46-1.76l.6-.46c.69-.51,1.36-1,2-1.57l.76-.6c.82-.67,1.65-1.35,2.46-2l.29-.26c.74-.65,1.48-1.3,2.2-2l.65-.6c.81-.75,1.62-1.52,2.41-2.3a102.31,102.31,0,0,0,30.22-73.18s0-.08,0-.12C231.93,105.74,231.91,104.91,231.89,104.08Z"/><path class="cls-3" d="M127.64,157.75a110.6,110.6,0,0,0,19.81-1.61v0A108.32,108.32,0,0,0,230.2,87.76,104,104,0,0,0,129.65,2.93l-1.24,0h-.71A103.93,103.93,0,0,0,26.12,86.21C40.84,127.54,80.62,157.35,127.64,157.75Z"/><path class="cls-4" d="M194.81,131.1c0-.14,0-.27,0-.41h0A10.18,10.18,0,0,0,184.52,121c-3.65-.1-15.24,7.27-19.12,9.12L144.68,71.83a16.61,16.61,0,0,0,.11-1.87,16.8,16.8,0,0,0-10.54-15.5l-.1-24.29a6.29,6.29,0,0,0-12.58,0l.1,24.28a16.79,16.79,0,0,0-10.42,15.59c0,.63,0,1.25.12,1.87l-2.67,6.52c.06,0-9.73,28.27-17.83,51.61C87,128.26,75.39,120.86,71.73,121a10.18,10.18,0,0,0-10.25,9.73h0c0,.14,0,.27,0,.41s0,.11,0,.17a7.07,7.07,0,0,0,0,1.3,5.73,5.73,0,0,0,.14.56.19.19,0,0,0,0,.07,11.7,11.7,0,0,0,.51,1.62c1.6,4.56,16.61,11.69,22.17,14l-4.08,11.73c-1.91,5.57-2.66,8.73-2.66,11.47,0,6.66,5.16,11.32,12.64,11.32,7.32,0,11.23-3.75,14-13.4l4.4-13.55s4.15,2,19.43,2c18.19,0,18.75-2,18.75-2L151.13,170c2.75,9.4,7,13.4,14.31,13.4,7.9,0,13.06-4.66,13.06-11.9,0-2.91-.75-6.24-2.25-10.89l-4.19-11.8c5.68-2.41,20.43-9.45,22-14a13.23,13.23,0,0,0,.51-1.62.19.19,0,0,0,0-.07c0-.19.11-.37.14-.56a8.08,8.08,0,0,0,0-1.3C194.79,131.21,194.81,131.16,194.81,131.1ZM120.4,65.86c0-.1.1-.19.14-.29a9.68,9.68,0,0,1,.56-1,7.56,7.56,0,0,1,1-1.22,8,8,0,0,1,11.3,0,7,7,0,0,1,1,1.2,8.44,8.44,0,0,1,.54,1,3,3,0,0,1,.16.31,8,8,0,1,1-14.68.11Zm7.65,72.55c-11.46,0-13.76-1.86-13.76-1.86l12.89-43h1.33l12.73,43S138.32,138.41,128.05,138.41Z"/></svg>