<?xml version="1.0" standalone="no"?>
<!DOCTYPE svg PUBLIC "-//W3C//DTD SVG 20010904//EN"
 "http://www.w3.org/TR/2001/REC-SVG-20010904/DTD/svg10.dtd">
<svg version="1.0" xmlns="http://www.w3.org/2000/svg"
 width="700.000000pt" height="700.000000pt" viewBox="0 0 700.000000 700.000000"
 preserveAspectRatio="xMidYMid meet">
<metadata>
Created by potrace 1.11, written by Peter Selinger 2001-2013
</metadata>
<g transform="translate(0.000000,700.000000) scale(0.100000,-0.100000)"
fill="#000000" stroke="none">
<path d="M3210 6909 c-47 -5 -146 -20 -220 -34 -1053 -192 -1903 -951 -2214
-1976 -135 -448 -157 -943 -60 -1400 86 -408 259 -786 514 -1123 407 -538
1737 -2260 1757 -2276 52 -41 148 -18 179 42 22 43 19 69 -71 591 -70 407 -74
440 -61 471 27 64 54 70 255 56 722 -53 1425 163 1991 609 135 107 373 348
471 476 324 426 513 889 574 1411 19 166 19 491 0 655 -123 1056 -828 1953
-1832 2333 -211 79 -483 142 -722 166 -120 12 -439 11 -561 -1z m370 -590 c21
-12 48 -40 61 -63 24 -41 24 -44 27 -393 l4 -352 51 -30 c117 -66 208 -200
226 -333 5 -37 7 -75 5 -85 -3 -10 122 -373 276 -808 154 -434 283 -796 285
-803 4 -10 34 2 107 43 57 31 164 86 238 123 122 60 141 67 195 66 144 0 253
-105 263 -252 10 -152 -78 -235 -442 -417 l-173 -86 59 -167 c90 -252 112
-341 112 -447 0 -114 -24 -176 -97 -240 -69 -63 -156 -89 -276 -83 -70 3 -99
10 -144 32 -113 55 -164 144 -267 472 -38 118 -71 218 -74 221 -3 4 -17 1 -30
-5 -55 -25 -198 -36 -476 -36 -278 1 -321 4 -520 41 -25 5 -27 1 -99 -224 -89
-276 -116 -337 -176 -401 -69 -75 -127 -97 -250 -97 -88 0 -107 4 -160 28
-138 65 -192 171 -172 342 5 44 39 163 91 317 l84 248 -155 74 c-256 125 -395
218 -441 296 -23 38 -27 56 -26 112 3 156 114 271 264 272 60 1 74 -4 190 -61
69 -34 175 -89 236 -123 l111 -60 228 662 c125 365 251 724 280 798 45 116 53
147 57 222 4 74 9 97 41 160 41 85 108 157 184 200 l53 30 0 357 c0 356 0 358
23 392 53 78 147 102 227 58z"/>
<path d="M3391 5308 c-51 -25 -93 -79 -111 -143 -37 -132 73 -274 213 -275
195 -1 292 229 158 373 -63 69 -174 88 -260 45z"/>
<path d="M3477 4443 c-3 -5 -82 -267 -177 -583 -95 -316 -174 -580 -177 -586
-15 -40 309 -75 509 -56 132 12 228 35 228 54 0 15 -326 1123 -340 1156 -9 21
-34 30 -43 15z"/>
</g>
</svg>
